# Blender v2.93.6 OBJ File: ''
# www.blender.org
mtllib FenceBroken.mtl
o Cube_Cube.001
v -0.201350 -0.982346 0.051305
v -0.161527 0.857486 0.040515
v -0.051086 -0.982346 -0.201178
v -0.041388 0.818313 -0.160749
v 0.051302 -0.982346 0.201288
v 0.034547 0.491967 0.169320
v 0.201566 -0.982346 -0.051195
v 0.132886 0.509096 -0.072997
v 0.125417 0.627649 0.090675
v 0.142447 -0.982346 0.054807
v 0.078005 0.553700 -0.133391
v 0.072393 -0.982346 -0.131977
v -0.132076 0.934402 -0.079679
v -0.138789 -0.982346 -0.060941
v -0.081847 0.626154 0.130393
v -0.061783 -0.982346 0.138250
v -0.170959 0.000000 0.046807
v -0.045867 0.077923 -0.169282
v 0.168067 -0.236581 -0.040584
v 0.027075 -0.182335 0.228226
v 0.144807 -0.236581 0.093661
v 0.088832 -0.063968 -0.192970
v -0.162619 0.166886 -0.091440
v -0.084772 0.000000 0.148436
v -0.095485 1.593632 0.024017
v -0.168628 1.117621 0.042032
v -0.024106 1.593632 -0.095556
v -0.042887 1.114427 -0.167908
v 0.023469 1.593641 0.094610
v 0.037603 1.114010 0.173950
v 0.094844 1.593641 -0.023650
v 0.163568 1.121690 -0.036108
v 0.150284 1.056850 0.046933
v 0.066573 1.593628 0.037671
v 0.077415 1.102167 -0.132427
v 0.037790 1.593665 -0.066589
v -0.130455 1.106383 -0.080267
v -0.063034 1.593632 -0.043792
v -0.083021 1.109929 0.128487
v -0.047830 1.593663 0.060537
vt 0.500000 0.000000
vt 0.625000 0.000000
vt 0.625000 0.125627
vt 0.500000 0.117052
vt 0.500000 0.250000
vt 0.625000 0.250000
vt 0.625000 0.372683
vt 0.500000 0.371421
vt 0.500000 0.500000
vt 0.625000 0.500000
vt 0.625000 0.667867
vt 0.500000 0.634943
vt 0.500000 0.750000
vt 0.625000 0.750000
vt 0.625000 0.879796
vt 0.500000 0.869563
vt 0.125000 0.500000
vt 0.245159 0.500000
vt 0.375000 0.500000
vt 0.375000 0.602020
vt 0.375000 0.750000
vt 0.265669 0.750000
vt 0.125000 0.750000
vt 0.125000 0.641524
vt 0.625000 0.372892
vt 0.625000 0.250000
vt 0.625000 0.127081
vt 0.625000 0.000000
vt 0.625000 0.655814
vt 0.625000 0.500000
vt 0.625000 0.881566
vt 0.625000 0.750000
vt 0.375000 0.859331
vt 0.500000 1.000000
vt 0.375000 1.000000
vt 0.688354 0.563194
vt 0.751495 0.558450
vt 0.811844 0.562973
vt 0.816293 0.619970
vt 0.811909 0.686651
vt 0.759201 0.691132
vt 0.688817 0.686117
vt 0.683627 0.622735
vt 0.625000 1.000000
vt 0.375000 0.108476
vt 0.375000 0.250000
vt 0.375000 0.370159
vt 0.375000 0.000000
vt 0.875000 0.511600
vt 0.875000 0.618801
vt 0.635615 0.500000
vt 0.751497 0.500000
vt 0.864053 0.750000
vt 0.761444 0.750000
vt 0.864330 0.500000
vt 0.875000 0.622024
vt 0.875000 0.739343
vt 0.756611 0.750000
vt 0.636848 0.750000
vt 0.625000 1.000000
vn -0.9923 0.0248 -0.1217
vn 0.0948 0.0503 -0.9942
vn 0.9954 0.0357 0.0885
vn -0.3969 0.0574 0.9161
vn 0.0000 -1.0000 0.0000
vn 0.2466 -0.0065 -0.9691
vn -0.6911 -0.0118 -0.7227
vn -0.9624 -0.0116 -0.2715
vn 0.9941 -0.0524 0.0950
vn -0.3363 -0.0017 0.9418
vn -0.6411 0.0002 0.7675
vn 0.7079 0.0339 0.7055
vn 0.7093 0.0074 0.7049
vn 0.8629 0.0392 -0.5039
vn -0.0000 1.0000 -0.0000
vn -0.5925 0.0246 -0.8052
vn -0.7454 0.0171 0.6663
vn 0.7435 0.0025 -0.6687
vn -0.7307 -0.0057 -0.6827
vn 0.7408 -0.0127 -0.6716
vn 0.8012 -0.0141 0.5982
vn -0.5541 -0.0320 0.8318
vn 0.9459 0.0090 0.3243
vn 0.1649 -0.0163 -0.9862
vn -0.9619 -0.0015 -0.2733
vn -0.7373 0.1402 -0.6609
vn 0.6812 0.1351 -0.7195
vn 0.7761 0.1285 0.6173
vn -0.6670 0.1408 0.7316
vn 0.9330 0.1399 0.3314
vn 0.3385 0.1397 -0.9305
vn -0.9252 0.1418 -0.3521
vn -0.3813 0.1479 0.9125
vn -0.7348 -0.0078 0.6782
usemtl None
s off
f 17/1/1 2/2/1 13/3/1 23/4/1
f 18/5/2 4/6/2 11/7/2 22/8/2
f 19/9/3 8/10/3 9/11/3 21/12/3
f 20/13/4 6/14/4 15/15/4 24/16/4
f 3/17/5 12/18/5 7/19/5 10/20/5 5/21/5 16/22/5 1/23/5 14/24/5
f 35/25/6 11/7/6 4/6/6 28/26/6
f 4/6/7 13/3/7 37/27/7 28/26/7
f 37/27/8 13/3/8 2/2/8 26/28/8
f 33/29/9 9/11/9 8/10/9 32/30/9
f 39/31/10 15/15/10 6/14/10 30/32/10
f 16/33/11 24/16/11 17/34/11 1/35/11
f 21/12/12 9/11/12 6/14/12 20/13/12
f 6/14/13 9/11/13 33/29/13 30/32/13
f 22/8/14 11/7/14 8/10/14 19/9/14
f 31/36/15 36/37/15 27/38/15 38/39/15 25/40/15 40/41/15 29/42/15 34/43/15
f 23/4/16 13/3/16 4/6/16 18/5/16
f 24/16/17 15/15/17 2/44/17 17/34/17
f 8/10/18 11/7/18 35/25/18 32/30/18
f 14/45/19 23/4/19 18/5/19 3/46/19
f 12/47/20 22/8/20 19/9/20 7/19/20
f 10/20/21 21/12/21 20/13/21 5/21/21
f 5/21/22 20/13/22 24/16/22 16/33/22
f 7/19/23 19/9/23 21/12/23 10/20/23
f 3/46/24 18/5/24 22/8/24 12/47/24
f 1/48/25 17/1/25 23/4/25 14/45/25
f 38/39/26 27/38/26 28/49/26 37/50/26
f 36/37/27 31/36/27 32/51/27 35/52/27
f 34/43/28 29/42/28 30/32/28 33/29/28
f 40/41/29 25/40/29 26/53/29 39/54/29
f 31/36/30 34/43/30 33/29/30 32/30/30
f 27/38/31 36/37/31 35/52/31 28/55/31
f 25/40/32 38/39/32 37/56/32 26/57/32
f 29/42/33 40/41/33 39/58/33 30/59/33
f 2/44/34 15/15/34 39/31/34 26/60/34
o Cube.001_Cube.002
v -3.379378 -0.982346 -0.166126
v -3.354100 0.857486 -0.133517
v -3.088521 -0.982346 -0.124536
v -3.122110 0.818313 -0.100034
v -3.420642 -0.982346 0.124778
v -3.397578 0.491967 0.097017
v -3.129785 -0.982346 0.166368
v -3.136078 0.509096 0.094585
v -3.290030 0.627649 0.150646
v -3.250372 -0.982346 0.152569
v -3.101440 0.553700 0.020697
v -3.104904 -0.982346 0.016060
v -3.231825 0.934402 -0.152563
v -3.251703 -0.982346 -0.151552
v -3.406415 0.626154 -0.025396
v -3.405950 -0.982346 -0.003853
v -3.363536 0.000000 -0.139803
v -3.115956 0.077923 -0.107451
v -3.152465 -0.236581 0.139527
v -3.454826 -0.182335 0.112777
v -3.285329 -0.236581 0.169693
v -3.042280 -0.063968 0.007774
v -3.232717 0.166886 -0.185280
v -3.424195 0.000000 -0.021156
v -3.313469 1.593632 -0.078901
v -3.358232 1.117621 -0.139487
v -3.175640 1.593632 -0.059006
v -3.116078 1.114427 -0.104171
v -3.332877 1.593641 0.058054
v -3.400677 1.114010 0.101618
v -3.196260 1.593641 0.078451
v -3.158328 1.121690 0.137096
v -3.240090 1.056850 0.156775
v -3.263739 1.593628 0.075941
v -3.102556 1.102167 0.020523
v -3.178571 1.593665 0.009270
v -3.230659 1.106383 -0.151293
v -3.238395 1.593632 -0.075029
v -3.405107 1.109929 -0.027213
v -3.328849 1.593663 -0.020866
vt 0.500000 0.000000
vt 0.625000 0.000000
vt 0.625000 0.125627
vt 0.500000 0.117052
vt 0.500000 0.250000
vt 0.625000 0.250000
vt 0.625000 0.372683
vt 0.500000 0.371421
vt 0.500000 0.500000
vt 0.625000 0.500000
vt 0.625000 0.667867
vt 0.500000 0.634943
vt 0.500000 0.750000
vt 0.625000 0.750000
vt 0.625000 0.879796
vt 0.500000 0.869563
vt 0.125000 0.500000
vt 0.245159 0.500000
vt 0.375000 0.500000
vt 0.375000 0.602020
vt 0.375000 0.750000
vt 0.265669 0.750000
vt 0.125000 0.750000
vt 0.125000 0.641524
vt 0.625000 0.372892
vt 0.625000 0.250000
vt 0.625000 0.127081
vt 0.625000 0.000000
vt 0.625000 0.655814
vt 0.625000 0.500000
vt 0.625000 0.881566
vt 0.625000 0.750000
vt 0.375000 0.859331
vt 0.500000 1.000000
vt 0.375000 1.000000
vt 0.688354 0.563194
vt 0.751495 0.558450
vt 0.811844 0.562973
vt 0.816293 0.619970
vt 0.811909 0.686651
vt 0.759201 0.691132
vt 0.688817 0.686117
vt 0.683627 0.622735
vt 0.625000 1.000000
vt 0.375000 0.108476
vt 0.375000 0.250000
vt 0.375000 0.370159
vt 0.375000 0.000000
vt 0.875000 0.511600
vt 0.875000 0.618801
vt 0.635615 0.500000
vt 0.751497 0.500000
vt 0.864053 0.750000
vt 0.761444 0.750000
vt 0.864330 0.500000
vt 0.875000 0.622024
vt 0.875000 0.739343
vt 0.756611 0.750000
vt 0.636848 0.750000
vt 0.625000 1.000000
vn -0.2693 0.0248 -0.9627
vn 0.9542 0.0503 -0.2949
vn 0.3012 0.0357 0.9529
vn -0.9983 0.0574 -0.0140
vn 0.0000 -1.0000 0.0000
vn 0.9894 -0.0065 -0.1452
vn 0.4012 -0.0118 -0.9159
vn -0.1195 -0.0116 -0.9928
vn 0.2947 -0.0524 0.9542
vn -0.9987 -0.0017 0.0518
vn -0.9550 0.0002 -0.2966
vn -0.3790 0.0339 0.9248
vn -0.3778 0.0074 0.9259
vn 0.7970 0.0392 0.6027
vn -0.0000 1.0000 -0.0000
vn 0.5153 0.0246 -0.8566
vn -0.9018 0.0171 -0.4318
vn 0.9033 0.0025 0.4291
vn 0.3491 -0.0057 -0.9371
vn 0.9049 -0.0127 0.4255
vn -0.2440 -0.0141 0.9697
vn -0.9810 -0.0320 -0.1916
vn 0.0644 0.0090 0.9979
vn 0.9737 -0.0163 -0.2271
vn -0.1177 -0.0015 -0.9930
vn 0.3265 0.1402 -0.9348
vn 0.9262 0.1351 0.3521
vn -0.2713 0.1285 0.9539
vn -0.9319 0.1408 -0.3343
vn 0.0529 0.1399 0.9887
vn 0.9891 0.1397 -0.0454
vn -0.0309 0.1418 -0.9894
vn -0.9890 0.1479 -0.0010
vn -0.9087 -0.0078 -0.4174
usemtl None
s off
f 57/61/35 42/62/35 53/63/35 63/64/35
f 58/65/36 44/66/36 51/67/36 62/68/36
f 59/69/37 48/70/37 49/71/37 61/72/37
f 60/73/38 46/74/38 55/75/38 64/76/38
f 43/77/39 52/78/39 47/79/39 50/80/39 45/81/39 56/82/39 41/83/39 54/84/39
f 75/85/40 51/67/40 44/66/40 68/86/40
f 44/66/41 53/63/41 77/87/41 68/86/41
f 77/87/42 53/63/42 42/62/42 66/88/42
f 73/89/43 49/71/43 48/70/43 72/90/43
f 79/91/44 55/75/44 46/74/44 70/92/44
f 56/93/45 64/76/45 57/94/45 41/95/45
f 61/72/46 49/71/46 46/74/46 60/73/46
f 46/74/47 49/71/47 73/89/47 70/92/47
f 62/68/48 51/67/48 48/70/48 59/69/48
f 71/96/49 76/97/49 67/98/49 78/99/49 65/100/49 80/101/49 69/102/49 74/103/49
f 63/64/50 53/63/50 44/66/50 58/65/50
f 64/76/51 55/75/51 42/104/51 57/94/51
f 48/70/52 51/67/52 75/85/52 72/90/52
f 54/105/53 63/64/53 58/65/53 43/106/53
f 52/107/54 62/68/54 59/69/54 47/79/54
f 50/80/55 61/72/55 60/73/55 45/81/55
f 45/81/56 60/73/56 64/76/56 56/93/56
f 47/79/57 59/69/57 61/72/57 50/80/57
f 43/106/58 58/65/58 62/68/58 52/107/58
f 41/108/59 57/61/59 63/64/59 54/105/59
f 78/99/60 67/98/60 68/109/60 77/110/60
f 76/97/61 71/96/61 72/111/61 75/112/61
f 74/103/62 69/102/62 70/92/62 73/89/62
f 80/101/63 65/100/63 66/113/63 79/114/63
f 71/96/64 74/103/64 73/89/64 72/90/64
f 67/98/65 76/97/65 75/112/65 68/115/65
f 65/100/66 78/99/66 77/116/66 66/117/66
f 69/102/67 80/101/67 79/118/67 70/119/67
f 42/104/68 55/75/68 79/91/68 66/120/68
o Cube.002_Cube.003
v -3.247006 -0.141421 0.000000
v -3.247006 0.000000 0.141421
v -3.247006 0.000000 -0.141421
v -3.247006 0.141421 0.000000
v -0.047006 -0.141421 0.000000
v -0.047006 0.000000 0.141421
v -0.047006 0.000000 -0.141421
v -0.047006 0.141421 0.000000
vt 0.375000 0.000000
vt 0.625000 0.000000
vt 0.625000 0.250000
vt 0.375000 0.250000
vt 0.625000 0.500000
vt 0.375000 0.500000
vt 0.625000 0.750000
vt 0.375000 0.750000
vt 0.625000 1.000000
vt 0.375000 1.000000
vt 0.125000 0.500000
vt 0.125000 0.750000
vt 0.875000 0.500000
vt 0.875000 0.750000
vn -1.0000 0.0000 0.0000
vn 0.0000 0.7071 -0.7071
vn 1.0000 0.0000 0.0000
vn 0.0000 -0.7071 0.7071
vn 0.0000 -0.7071 -0.7071
vn 0.0000 0.7071 0.7071
usemtl None
s off
f 81/121/69 82/122/69 84/123/69 83/124/69
f 83/124/70 84/123/70 88/125/70 87/126/70
f 87/126/71 88/125/71 86/127/71 85/128/71
f 85/128/72 86/127/72 82/129/72 81/130/72
f 83/131/73 87/126/73 85/128/73 81/132/73
f 88/125/74 84/133/74 82/134/74 86/127/74
o Cube.003_Cube.004
v -3.192456 0.344118 0.000000
v -3.218864 0.483052 0.141421
v -3.218864 0.483052 -0.141421
v -3.245272 0.621986 0.000000
v -0.048741 0.941661 0.000000
v -0.075149 1.080595 0.141421
v -0.075149 1.080595 -0.141421
v -0.101557 1.219529 0.000000
vt 0.375000 0.000000
vt 0.625000 0.000000
vt 0.625000 0.250000
vt 0.375000 0.250000
vt 0.625000 0.500000
vt 0.375000 0.500000
vt 0.625000 0.750000
vt 0.375000 0.750000
vt 0.625000 1.000000
vt 0.375000 1.000000
vt 0.125000 0.500000
vt 0.125000 0.750000
vt 0.875000 0.500000
vt 0.875000 0.750000
vn -0.9824 -0.1867 0.0000
vn -0.1320 0.6947 -0.7071
vn 0.9824 0.1867 0.0000
vn 0.1320 -0.6947 0.7071
vn 0.1320 -0.6947 -0.7071
vn -0.1320 0.6947 0.7071
usemtl None
s off
f 89/135/75 90/136/75 92/137/75 91/138/75
f 91/138/76 92/137/76 96/139/76 95/140/76
f 95/140/77 96/139/77 94/141/77 93/142/77
f 93/142/78 94/141/78 90/143/78 89/144/78
f 91/145/79 95/140/79 93/142/79 89/146/79
f 96/139/80 92/147/80 90/148/80 94/141/80
